<mxfile host="app.diagrams.net" modified="2022-09-11T05:32:25.711Z" agent="5.0 (Windows NT 10.0; Win64; x64) AppleWebKit/537.36 (KHTML, like Gecko) Chrome/105.0.0.0 Safari/537.36" etag="HdDSRZMnhev2pBiaJBXK" version="20.3.0" type="github">
  <diagram id="6a731a19-8d31-9384-78a2-239565b7b9f0" name="Page-1">
    <mxGraphModel dx="2946" dy="1603" grid="1" gridSize="10" guides="1" tooltips="1" connect="1" arrows="1" fold="1" page="1" pageScale="1" pageWidth="1169" pageHeight="827" background="none" math="0" shadow="0">
      <root>
        <mxCell id="0" />
        <mxCell id="1" parent="0" />
        <mxCell id="1350" value="falsos positivos" style="ellipse;whiteSpace=wrap;html=1;shadow=0;fontFamily=Helvetica;fontSize=20;fontColor=#FFFFFF;align=center;strokeWidth=3;fillColor=#1699D3;strokeColor=none;" parent="1" vertex="1">
          <mxGeometry x="645" y="696.5" width="120" height="120" as="geometry" />
        </mxCell>
        <mxCell id="MXux9m_b7VZly-nkMbkq-1545" style="edgeStyle=orthogonalEdgeStyle;rounded=0;orthogonalLoop=1;jettySize=auto;html=1;" edge="1" parent="1" source="1351" target="1393">
          <mxGeometry relative="1" as="geometry" />
        </mxCell>
        <mxCell id="MXux9m_b7VZly-nkMbkq-1546" style="edgeStyle=orthogonalEdgeStyle;rounded=0;orthogonalLoop=1;jettySize=auto;html=1;entryX=0.25;entryY=1;entryDx=0;entryDy=0;" edge="1" parent="1" source="1351" target="1395">
          <mxGeometry relative="1" as="geometry" />
        </mxCell>
        <mxCell id="1351" value="Teconoligas usb" style="ellipse;whiteSpace=wrap;html=1;shadow=0;fontFamily=Helvetica;fontSize=20;fontColor=#FFFFFF;align=center;strokeWidth=3;fillColor=#F08705;strokeColor=none;gradientColor=none;" parent="1" vertex="1">
          <mxGeometry x="1120" y="354" width="120" height="120" as="geometry" />
        </mxCell>
        <mxCell id="1352" value="USAB como herramienta" style="ellipse;whiteSpace=wrap;html=1;shadow=0;fontFamily=Helvetica;fontSize=20;fontColor=#FFFFFF;align=center;strokeWidth=3;fillColor=#E85642;strokeColor=none;" parent="1" vertex="1">
          <mxGeometry x="1538" y="761.5" width="120" height="120" as="geometry" />
        </mxCell>
        <mxCell id="1354" value="Aplicaciones empleadas" style="ellipse;whiteSpace=wrap;html=1;shadow=0;fontFamily=Helvetica;fontSize=20;fontColor=#FFFFFF;align=center;strokeWidth=3;fillColor=#736ca8;strokeColor=none;" parent="1" vertex="1">
          <mxGeometry x="1280" y="1170" width="120" height="120" as="geometry" />
        </mxCell>
        <mxCell id="1355" value="El hackin etico" style="ellipse;whiteSpace=wrap;html=1;shadow=0;fontFamily=Helvetica;fontSize=20;fontColor=#FFFFFF;align=center;strokeWidth=3;fillColor=#F08705;strokeColor=none;" parent="1" vertex="1">
          <mxGeometry x="558.5" y="1121.5" width="120" height="120" as="geometry" />
        </mxCell>
        <mxCell id="1359" style="endArrow=none;strokeWidth=6;strokeColor=#1699D3;html=1;" parent="1" source="1515" target="1350" edge="1">
          <mxGeometry relative="1" as="geometry" />
        </mxCell>
        <mxCell id="1360" style="endArrow=none;strokeWidth=6;strokeColor=#f08705;html=1;" parent="1" source="1515" target="1351" edge="1">
          <mxGeometry relative="1" as="geometry" />
        </mxCell>
        <mxCell id="1361" style="endArrow=none;strokeWidth=6;strokeColor=#E85642;html=1;" parent="1" source="1515" target="1352" edge="1">
          <mxGeometry relative="1" as="geometry" />
        </mxCell>
        <mxCell id="1364" style="endArrow=none;strokeWidth=6;strokeColor=#736ca8;html=1;" parent="1" source="1515" target="1354" edge="1">
          <mxGeometry relative="1" as="geometry" />
        </mxCell>
        <mxCell id="1365" value="" style="edgeStyle=none;endArrow=none;strokeWidth=6;strokeColor=#F08705;html=1;" parent="1" source="1515" target="1355" edge="1">
          <mxGeometry x="181" y="226.5" width="100" height="100" as="geometry">
            <mxPoint x="181" y="326.5" as="sourcePoint" />
            <mxPoint x="281" y="226.5" as="targetPoint" />
          </mxGeometry>
        </mxCell>
        <mxCell id="1370" value="&#xa;&lt;h3 style=&quot;color: rgb(0, 0, 0); margin: 0.3em 0px 0.25em; padding-top: 0.5em; padding-bottom: 0px; overflow: hidden; font-size: 1.2em; line-height: 1.6; font-weight: bold; font-family: sans-serif; font-style: normal; font-variant-ligatures: normal; font-variant-caps: normal; letter-spacing: normal; orphans: 2; text-align: start; text-indent: 0px; text-transform: none; widows: 2; word-spacing: 0px; -webkit-text-stroke-width: 0px; background-color: rgb(255, 255, 255); text-decoration-thickness: initial; text-decoration-style: initial; text-decoration-color: initial;&quot;&gt;&lt;span id=&quot;Herramientas_de_hacking&quot; class=&quot;mw-headline&quot;&gt;Herramientas de hacking&lt;/span&gt;&lt;/h3&gt;&#xa;&#xa;" style="rounded=1;fillColor=#64BBE2;strokeColor=none;strokeWidth=3;shadow=0;html=1;fontColor=#FFFFFF;" parent="1" vertex="1">
          <mxGeometry x="410" y="631.5" width="200" height="78.5" as="geometry" />
        </mxCell>
        <mxCell id="1371" value="&#xa;&lt;h3 style=&quot;color: rgb(0, 0, 0); margin: 0.3em 0px 0.25em; padding-top: 0.5em; padding-bottom: 0px; overflow: hidden; font-size: 1.2em; line-height: 1.6; font-weight: bold; font-family: sans-serif; font-style: normal; font-variant-ligatures: normal; font-variant-caps: normal; letter-spacing: normal; orphans: 2; text-align: start; text-indent: 0px; text-transform: none; widows: 2; word-spacing: 0px; -webkit-text-stroke-width: 0px; background-color: rgb(255, 255, 255); text-decoration-thickness: initial; text-decoration-style: initial; text-decoration-color: initial;&quot;&gt;&lt;span id=&quot;Heurística&quot; class=&quot;mw-headline&quot;&gt;Heurística&lt;/span&gt;&lt;/h3&gt;&#xa;&#xa;" style="rounded=1;fillColor=#64BBE2;strokeColor=none;strokeWidth=3;shadow=0;html=1;fontColor=#FFFFFF;" parent="1" vertex="1">
          <mxGeometry x="470" y="550" width="190" height="61.5" as="geometry" />
        </mxCell>
        <mxCell id="1372" value="&#xa;&lt;h3 style=&quot;color: rgb(0, 0, 0); margin: 0.3em 0px 0.25em; padding-top: 0.5em; padding-bottom: 0px; overflow: hidden; font-size: 1.2em; line-height: 1.6; font-weight: bold; font-family: sans-serif; font-style: normal; font-variant-ligatures: normal; font-variant-caps: normal; letter-spacing: normal; orphans: 2; text-align: start; text-indent: 0px; text-transform: none; widows: 2; word-spacing: 0px; -webkit-text-stroke-width: 0px; background-color: rgb(255, 255, 255); text-decoration-thickness: initial; text-decoration-style: initial; text-decoration-color: initial;&quot;&gt;&lt;span id=&quot;Compresor_de_ejecutables&quot; class=&quot;mw-headline&quot;&gt;Compresor de ejecutables&lt;/span&gt;&lt;/h3&gt;&#xa;&#xa;" style="rounded=1;fillColor=#64BBE2;strokeColor=none;strokeWidth=3;shadow=0;html=1;fontColor=#FFFFFF;" parent="1" vertex="1">
          <mxGeometry x="550" y="470" width="230" height="70" as="geometry" />
        </mxCell>
        <mxCell id="1373" value="&#xa;&lt;h3 style=&quot;color: rgb(0, 0, 0); margin: 0.3em 0px 0.25em; padding-top: 0.5em; padding-bottom: 0px; overflow: hidden; font-size: 1.2em; line-height: 1.6; font-weight: bold; font-family: sans-serif; font-style: normal; font-variant-ligatures: normal; font-variant-caps: normal; letter-spacing: normal; orphans: 2; text-align: start; text-indent: 0px; text-transform: none; widows: 2; word-spacing: 0px; -webkit-text-stroke-width: 0px; background-color: rgb(255, 255, 255); text-decoration-thickness: initial; text-decoration-style: initial; text-decoration-color: initial;&quot;&gt;&lt;span id=&quot;Cracks_y_keygens&quot; class=&quot;mw-headline&quot;&gt;Cracks y keygens&lt;/span&gt;&lt;/h3&gt;&#xa;&#xa;" style="rounded=1;fillColor=#64BBE2;strokeColor=none;strokeWidth=3;shadow=0;html=1;fontColor=#FFFFFF;" parent="1" vertex="1">
          <mxGeometry x="730" y="550" width="180" height="61.5" as="geometry" />
        </mxCell>
        <mxCell id="1382" value="" style="edgeStyle=none;endArrow=none;strokeWidth=3;strokeColor=#64BBE2;html=1;" parent="1" source="1350" target="1370" edge="1">
          <mxGeometry x="-100" y="481.5" width="100" height="100" as="geometry">
            <mxPoint x="-100" y="581.5" as="sourcePoint" />
            <mxPoint y="481.5" as="targetPoint" />
          </mxGeometry>
        </mxCell>
        <mxCell id="1383" value="" style="edgeStyle=none;endArrow=none;strokeWidth=3;strokeColor=#64BBE2;html=1;" parent="1" source="1350" target="1371" edge="1">
          <mxGeometry x="-100" y="481.5" width="100" height="100" as="geometry">
            <mxPoint x="-100" y="581.5" as="sourcePoint" />
            <mxPoint y="481.5" as="targetPoint" />
          </mxGeometry>
        </mxCell>
        <mxCell id="1384" value="" style="edgeStyle=none;endArrow=none;strokeWidth=3;strokeColor=#64BBE2;html=1;" parent="1" source="1350" target="1372" edge="1">
          <mxGeometry x="-100" y="481.5" width="100" height="100" as="geometry">
            <mxPoint x="-100" y="581.5" as="sourcePoint" />
            <mxPoint y="481.5" as="targetPoint" />
          </mxGeometry>
        </mxCell>
        <mxCell id="1385" value="" style="edgeStyle=none;endArrow=none;strokeWidth=3;strokeColor=#64BBE2;html=1;" parent="1" source="1350" target="1373" edge="1">
          <mxGeometry x="-100" y="481.5" width="100" height="100" as="geometry">
            <mxPoint x="-100" y="581.5" as="sourcePoint" />
            <mxPoint y="481.5" as="targetPoint" />
          </mxGeometry>
        </mxCell>
        <mxCell id="1389" value="Bash bunny" style="rounded=1;fillColor=#f5af58;strokeColor=none;strokeWidth=3;shadow=0;html=1;fontColor=#FFFFFF;" parent="1" vertex="1">
          <mxGeometry x="980" y="430" width="120" height="40" as="geometry" />
        </mxCell>
        <mxCell id="1390" value="USBdriveby" style="rounded=1;fillColor=#f5af58;strokeColor=none;strokeWidth=3;shadow=0;html=1;fontColor=#FFFFFF;" parent="1" vertex="1">
          <mxGeometry x="1280" y="470" width="120" height="40" as="geometry" />
        </mxCell>
        <mxCell id="1391" value="Sniffer" style="rounded=1;fillColor=#f5af58;strokeColor=none;strokeWidth=3;shadow=0;html=1;fontColor=#FFFFFF;" parent="1" vertex="1">
          <mxGeometry x="971" y="280" width="120" height="40" as="geometry" />
        </mxCell>
        <mxCell id="1392" value="Antena Yagi" style="rounded=1;fillColor=#f5af58;strokeColor=none;strokeWidth=3;shadow=0;html=1;fontColor=#FFFFFF;" parent="1" vertex="1">
          <mxGeometry x="1080" y="180" width="120" height="40" as="geometry" />
        </mxCell>
        <mxCell id="1393" value="Dstike" style="rounded=1;fillColor=#f5af58;strokeColor=none;strokeWidth=3;shadow=0;html=1;fontColor=#FFFFFF;" parent="1" vertex="1">
          <mxGeometry x="1221" y="220" width="120" height="40" as="geometry" />
        </mxCell>
        <mxCell id="1395" value="Rubber ducky" style="rounded=1;fillColor=#f5af58;strokeColor=none;strokeWidth=3;shadow=0;html=1;fontColor=#FFFFFF;" parent="1" vertex="1">
          <mxGeometry x="1341" y="295" width="120" height="40" as="geometry" />
        </mxCell>
        <mxCell id="1401" value="" style="edgeStyle=none;endArrow=none;strokeWidth=3;strokeColor=#F5AF58;html=1;" parent="1" source="1351" target="1389" edge="1">
          <mxGeometry x="61" y="115" width="100" height="100" as="geometry">
            <mxPoint x="61" y="215" as="sourcePoint" />
            <mxPoint x="161" y="115" as="targetPoint" />
          </mxGeometry>
        </mxCell>
        <mxCell id="1402" value="" style="edgeStyle=none;endArrow=none;strokeWidth=3;strokeColor=#F5AF58;html=1;" parent="1" source="1351" target="1390" edge="1">
          <mxGeometry x="61" y="115" width="100" height="100" as="geometry">
            <mxPoint x="61" y="215" as="sourcePoint" />
            <mxPoint x="161" y="115" as="targetPoint" />
          </mxGeometry>
        </mxCell>
        <mxCell id="1403" value="" style="edgeStyle=none;endArrow=none;strokeWidth=3;strokeColor=#F5AF58;html=1;" parent="1" source="1351" target="1391" edge="1">
          <mxGeometry x="61" y="115" width="100" height="100" as="geometry">
            <mxPoint x="61" y="215" as="sourcePoint" />
            <mxPoint x="161" y="115" as="targetPoint" />
          </mxGeometry>
        </mxCell>
        <mxCell id="1404" value="" style="edgeStyle=none;endArrow=none;strokeWidth=3;strokeColor=#F5AF58;html=1;" parent="1" source="1351" target="1392" edge="1">
          <mxGeometry x="61" y="115" width="100" height="100" as="geometry">
            <mxPoint x="61" y="215" as="sourcePoint" />
            <mxPoint x="161" y="115" as="targetPoint" />
          </mxGeometry>
        </mxCell>
        <mxCell id="1412" value="recurva" style="rounded=1;fillColor=#f08e81;strokeColor=none;strokeWidth=3;shadow=0;html=1;fontColor=#FFFFFF;" parent="1" vertex="1">
          <mxGeometry x="1723" y="861.5" width="120" height="40" as="geometry" />
        </mxCell>
        <mxCell id="1413" value="KeePass" style="rounded=1;fillColor=#f08e81;strokeColor=none;strokeWidth=3;shadow=0;html=1;fontColor=#FFFFFF;" parent="1" vertex="1">
          <mxGeometry x="1483" y="906.5" width="120" height="40" as="geometry" />
        </mxCell>
        <mxCell id="1416" value="BadUsb" style="rounded=1;fillColor=#f08e81;strokeColor=none;strokeWidth=3;shadow=0;html=1;fontColor=#FFFFFF;" parent="1" vertex="1">
          <mxGeometry x="1453" y="638" width="120" height="40" as="geometry" />
        </mxCell>
        <mxCell id="1417" value="Portabilidad" style="rounded=1;fillColor=#f08e81;strokeColor=none;strokeWidth=3;shadow=0;html=1;fontColor=#FFFFFF;" parent="1" vertex="1">
          <mxGeometry x="1603" y="571.5" width="120" height="40" as="geometry" />
        </mxCell>
        <mxCell id="1418" value="PoC" style="rounded=1;fillColor=#f08e81;strokeColor=none;strokeWidth=3;shadow=0;html=1;fontColor=#FFFFFF;" parent="1" vertex="1">
          <mxGeometry x="1698" y="656.5" width="120" height="40" as="geometry" />
        </mxCell>
        <mxCell id="1419" value="Clamwin POrtable" style="rounded=1;fillColor=#f08e81;strokeColor=none;strokeWidth=3;shadow=0;html=1;fontColor=#FFFFFF;" parent="1" vertex="1">
          <mxGeometry x="1753" y="771.5" width="120" height="40" as="geometry" />
        </mxCell>
        <mxCell id="1422" value="Spybot" style="rounded=1;fillColor=#f08e81;strokeColor=none;strokeWidth=3;shadow=0;html=1;fontColor=#FFFFFF;" parent="1" vertex="1">
          <mxGeometry x="1377" y="741.5" width="120" height="40" as="geometry" />
        </mxCell>
        <mxCell id="1424" value="" style="edgeStyle=none;endArrow=none;strokeWidth=3;strokeColor=#F08E81;html=1;" parent="1" source="1352" target="1413" edge="1">
          <mxGeometry x="-132" y="511.5" width="100" height="100" as="geometry">
            <mxPoint x="-132" y="611.5" as="sourcePoint" />
            <mxPoint x="-32" y="511.5" as="targetPoint" />
          </mxGeometry>
        </mxCell>
        <mxCell id="1427" value="" style="edgeStyle=none;endArrow=none;strokeWidth=3;strokeColor=#F08E81;html=1;" parent="1" source="1352" target="1416" edge="1">
          <mxGeometry x="-132" y="511.5" width="100" height="100" as="geometry">
            <mxPoint x="-132" y="611.5" as="sourcePoint" />
            <mxPoint x="-32" y="511.5" as="targetPoint" />
          </mxGeometry>
        </mxCell>
        <mxCell id="1428" value="" style="edgeStyle=none;endArrow=none;strokeWidth=3;strokeColor=#F08E81;html=1;" parent="1" source="1352" target="1417" edge="1">
          <mxGeometry x="-132" y="511.5" width="100" height="100" as="geometry">
            <mxPoint x="-132" y="611.5" as="sourcePoint" />
            <mxPoint x="-32" y="511.5" as="targetPoint" />
          </mxGeometry>
        </mxCell>
        <mxCell id="1429" value="" style="edgeStyle=none;endArrow=none;strokeWidth=3;strokeColor=#F08E81;html=1;" parent="1" source="1352" target="1418" edge="1">
          <mxGeometry x="-132" y="511.5" width="100" height="100" as="geometry">
            <mxPoint x="-132" y="611.5" as="sourcePoint" />
            <mxPoint x="-32" y="511.5" as="targetPoint" />
          </mxGeometry>
        </mxCell>
        <mxCell id="1430" value="" style="edgeStyle=none;endArrow=none;strokeWidth=3;strokeColor=#F08E81;html=1;" parent="1" source="1352" target="1419" edge="1">
          <mxGeometry x="-132" y="511.5" width="100" height="100" as="geometry">
            <mxPoint x="-132" y="611.5" as="sourcePoint" />
            <mxPoint x="-32" y="511.5" as="targetPoint" />
          </mxGeometry>
        </mxCell>
        <mxCell id="1431" value="" style="edgeStyle=none;endArrow=none;strokeWidth=3;strokeColor=#F08E81;html=1;" parent="1" source="1352" target="1412" edge="1">
          <mxGeometry x="-132" y="511.5" width="100" height="100" as="geometry">
            <mxPoint x="-132" y="611.5" as="sourcePoint" />
            <mxPoint x="-32" y="511.5" as="targetPoint" />
          </mxGeometry>
        </mxCell>
        <mxCell id="1432" value="" style="edgeStyle=none;endArrow=none;strokeWidth=3;strokeColor=#F08E81;html=1;" parent="1" source="1352" target="1422" edge="1">
          <mxGeometry x="-132" y="511.5" width="100" height="100" as="geometry">
            <mxPoint x="-132" y="611.5" as="sourcePoint" />
            <mxPoint x="-32" y="511.5" as="targetPoint" />
          </mxGeometry>
        </mxCell>
        <mxCell id="1457" value="Nikto2" style="rounded=1;fillColor=#a29dc5;strokeColor=none;strokeWidth=3;shadow=0;html=1;fontColor=#FFFFFF;" parent="1" vertex="1">
          <mxGeometry x="1285" y="1033" width="120" height="40" as="geometry" />
        </mxCell>
        <mxCell id="1458" value="Ettercap" style="rounded=1;fillColor=#a29dc5;strokeColor=none;strokeWidth=3;shadow=0;html=1;fontColor=#FFFFFF;" parent="1" vertex="1">
          <mxGeometry x="1200" y="1300" width="120" height="40" as="geometry" />
        </mxCell>
        <mxCell id="1459" value="Wireshark" style="rounded=1;fillColor=#a29dc5;strokeColor=none;strokeWidth=3;shadow=0;html=1;fontColor=#FFFFFF;" parent="1" vertex="1">
          <mxGeometry x="1370" y="1112.5" width="120" height="40" as="geometry" />
        </mxCell>
        <mxCell id="1460" value="Nmap" style="rounded=1;fillColor=#a29dc5;strokeColor=none;strokeWidth=3;shadow=0;html=1;fontColor=#FFFFFF;" parent="1" vertex="1">
          <mxGeometry x="1470" y="1192.5" width="120" height="40" as="geometry" />
        </mxCell>
        <mxCell id="1461" value="Nessus" style="rounded=1;fillColor=#a29dc5;strokeColor=none;strokeWidth=3;shadow=0;html=1;fontColor=#FFFFFF;" parent="1" vertex="1">
          <mxGeometry x="1390" y="1330" width="120" height="40" as="geometry" />
        </mxCell>
        <mxCell id="1462" value="Cain y Abel" style="rounded=1;fillColor=#a29dc5;strokeColor=none;strokeWidth=3;shadow=0;html=1;fontColor=#FFFFFF;" parent="1" vertex="1">
          <mxGeometry x="1120" y="1210" width="120" height="40" as="geometry" />
        </mxCell>
        <mxCell id="1463" value="" style="edgeStyle=none;endArrow=none;strokeWidth=3;strokeColor=#A29DC5;html=1;" parent="1" source="1354" target="1460" edge="1">
          <mxGeometry x="-180" y="-105" width="100" height="100" as="geometry">
            <mxPoint x="-180" y="-5" as="sourcePoint" />
            <mxPoint x="-80" y="-105" as="targetPoint" />
          </mxGeometry>
        </mxCell>
        <mxCell id="1464" value="" style="edgeStyle=none;endArrow=none;strokeWidth=3;strokeColor=#A29DC5;html=1;" parent="1" source="1354" target="1461" edge="1">
          <mxGeometry x="-180" y="-105" width="100" height="100" as="geometry">
            <mxPoint x="-180" y="-5" as="sourcePoint" />
            <mxPoint x="-80" y="-105" as="targetPoint" />
          </mxGeometry>
        </mxCell>
        <mxCell id="1465" value="" style="edgeStyle=none;endArrow=none;strokeWidth=3;strokeColor=#A29DC5;html=1;" parent="1" source="1354" target="1458" edge="1">
          <mxGeometry x="-180" y="-105" width="100" height="100" as="geometry">
            <mxPoint x="-180" y="-5" as="sourcePoint" />
            <mxPoint x="-80" y="-105" as="targetPoint" />
          </mxGeometry>
        </mxCell>
        <mxCell id="1466" value="" style="edgeStyle=none;endArrow=none;strokeWidth=3;strokeColor=#A29DC5;html=1;" parent="1" source="1354" target="1462" edge="1">
          <mxGeometry x="-180" y="-105" width="100" height="100" as="geometry">
            <mxPoint x="-180" y="-5" as="sourcePoint" />
            <mxPoint x="-80" y="-105" as="targetPoint" />
          </mxGeometry>
        </mxCell>
        <mxCell id="1467" value="" style="edgeStyle=none;endArrow=none;strokeWidth=3;strokeColor=#A29DC5;html=1;" parent="1" source="1354" target="1457" edge="1">
          <mxGeometry x="-180" y="-105" width="100" height="100" as="geometry">
            <mxPoint x="-180" y="-5" as="sourcePoint" />
            <mxPoint x="1310" y="1102.5" as="targetPoint" />
          </mxGeometry>
        </mxCell>
        <mxCell id="1468" value="Seguro" style="rounded=1;fillColor=#f5af58;strokeColor=none;strokeWidth=3;shadow=0;html=1;fontColor=#FFFFFF;" parent="1" vertex="1">
          <mxGeometry x="753.5" y="1086.5" width="120" height="40" as="geometry" />
        </mxCell>
        <mxCell id="1469" value="Para un bien" style="rounded=1;fillColor=#f5af58;strokeColor=none;strokeWidth=3;shadow=0;html=1;fontColor=#FFFFFF;" parent="1" vertex="1">
          <mxGeometry x="650" y="1330" width="120" height="40" as="geometry" />
        </mxCell>
        <mxCell id="1470" value="Seguridad de empresas" style="rounded=1;fillColor=#f5af58;strokeColor=none;strokeWidth=3;shadow=0;html=1;fontColor=#FFFFFF;" parent="1" vertex="1">
          <mxGeometry x="743.5" y="1224" width="146.5" height="46" as="geometry" />
        </mxCell>
        <mxCell id="1471" value="Busqueda de vulnerabilidades" style="rounded=1;fillColor=#f5af58;strokeColor=none;strokeWidth=3;shadow=0;html=1;fontColor=#FFFFFF;" parent="1" vertex="1">
          <mxGeometry x="430" y="1360" width="201.5" height="56" as="geometry" />
        </mxCell>
        <mxCell id="1472" value="Combatir contra hackers de sombrero negro" style="rounded=1;fillColor=#f5af58;strokeColor=none;strokeWidth=3;shadow=0;html=1;fontColor=#FFFFFF;" parent="1" vertex="1">
          <mxGeometry x="210" y="1142.25" width="271.5" height="78.5" as="geometry" />
        </mxCell>
        <mxCell id="1477" value="Truffle" style="rounded=1;fillColor=#f5af58;strokeColor=none;strokeWidth=3;shadow=0;html=1;fontColor=#FFFFFF;" parent="1" vertex="1">
          <mxGeometry x="423.5" y="1021.5" width="120" height="40" as="geometry" />
        </mxCell>
        <mxCell id="1478" value="Legal" style="rounded=1;fillColor=#f5af58;strokeColor=none;strokeWidth=3;shadow=0;html=1;fontColor=#FFFFFF;" parent="1" vertex="1">
          <mxGeometry x="610" y="1000" width="120" height="40" as="geometry" />
        </mxCell>
        <mxCell id="1479" value="" style="edgeStyle=none;endArrow=none;strokeWidth=3;strokeColor=#F5AF58;html=1;" parent="1" source="1355" target="1478" edge="1">
          <mxGeometry x="-361.5" y="-148.5" width="100" height="100" as="geometry">
            <mxPoint x="-361.5" y="-48.5" as="sourcePoint" />
            <mxPoint x="-261.5" y="-148.5" as="targetPoint" />
          </mxGeometry>
        </mxCell>
        <mxCell id="1480" value="" style="edgeStyle=none;endArrow=none;strokeWidth=3;strokeColor=#F5AF58;html=1;" parent="1" source="1355" target="1468" edge="1">
          <mxGeometry x="-361.5" y="-148.5" width="100" height="100" as="geometry">
            <mxPoint x="-361.5" y="-48.5" as="sourcePoint" />
            <mxPoint x="-261.5" y="-148.5" as="targetPoint" />
          </mxGeometry>
        </mxCell>
        <mxCell id="1481" value="" style="edgeStyle=none;endArrow=none;strokeWidth=3;strokeColor=#F5AF58;html=1;" parent="1" source="1355" target="1469" edge="1">
          <mxGeometry x="-361.5" y="-148.5" width="100" height="100" as="geometry">
            <mxPoint x="-361.5" y="-48.5" as="sourcePoint" />
            <mxPoint x="-261.5" y="-148.5" as="targetPoint" />
          </mxGeometry>
        </mxCell>
        <mxCell id="1482" value="" style="edgeStyle=none;endArrow=none;strokeWidth=3;strokeColor=#F5AF58;html=1;" parent="1" source="1355" target="1470" edge="1">
          <mxGeometry x="-361.5" y="-148.5" width="100" height="100" as="geometry">
            <mxPoint x="-361.5" y="-48.5" as="sourcePoint" />
            <mxPoint x="-261.5" y="-148.5" as="targetPoint" />
          </mxGeometry>
        </mxCell>
        <mxCell id="1483" value="" style="edgeStyle=none;endArrow=none;strokeWidth=3;strokeColor=#F5AF58;html=1;" parent="1" source="1355" target="1471" edge="1">
          <mxGeometry x="-361.5" y="-148.5" width="100" height="100" as="geometry">
            <mxPoint x="-361.5" y="-48.5" as="sourcePoint" />
            <mxPoint x="-261.5" y="-148.5" as="targetPoint" />
          </mxGeometry>
        </mxCell>
        <mxCell id="1484" value="" style="edgeStyle=none;endArrow=none;strokeWidth=3;strokeColor=#F5AF58;html=1;" parent="1" source="1355" target="1472" edge="1">
          <mxGeometry x="-361.5" y="-148.5" width="100" height="100" as="geometry">
            <mxPoint x="-361.5" y="-48.5" as="sourcePoint" />
            <mxPoint x="-261.5" y="-148.5" as="targetPoint" />
          </mxGeometry>
        </mxCell>
        <mxCell id="1489" value="" style="edgeStyle=none;endArrow=none;strokeWidth=3;strokeColor=#F5AF58;html=1;" parent="1" source="1355" target="1477" edge="1">
          <mxGeometry x="-361.5" y="-148.5" width="100" height="100" as="geometry">
            <mxPoint x="-361.5" y="-48.5" as="sourcePoint" />
            <mxPoint x="-261.5" y="-148.5" as="targetPoint" />
          </mxGeometry>
        </mxCell>
        <mxCell id="1514" style="edgeStyle=orthogonalEdgeStyle;rounded=0;html=1;exitX=0.75;exitY=0;entryX=0.75;entryY=0;startArrow=none;startFill=0;endArrow=block;endFill=1;jettySize=auto;orthogonalLoop=1;strokeColor=#12aab5;strokeWidth=6;fontSize=20;fontColor=#2F5B7C;" parent="1" edge="1">
          <mxGeometry relative="1" as="geometry">
            <mxPoint x="1448" y="776.5" as="sourcePoint" />
            <mxPoint x="1448" y="776.5" as="targetPoint" />
          </mxGeometry>
        </mxCell>
        <mxCell id="1515" value="Conceptos finales" style="ellipse;whiteSpace=wrap;html=1;shadow=0;fontFamily=Helvetica;fontSize=30;fontColor=#2F5B7C;align=center;strokeColor=#2F5B7C;strokeWidth=6;fillColor=#FFFFFF;fontStyle=1;gradientColor=none;" parent="1" vertex="1">
          <mxGeometry x="961" y="676.5" width="270" height="270" as="geometry" />
        </mxCell>
        <mxCell id="1541" value="" style="edgeStyle=none;endArrow=none;strokeWidth=3;strokeColor=#A29DC5;html=1;" parent="1" source="1354" target="1459" edge="1">
          <mxGeometry x="-1605" y="-410" width="100" height="100" as="geometry">
            <mxPoint x="-1605" y="-310" as="sourcePoint" />
            <mxPoint x="-1505" y="-410" as="targetPoint" />
          </mxGeometry>
        </mxCell>
        <mxCell id="MXux9m_b7VZly-nkMbkq-1547" style="edgeStyle=orthogonalEdgeStyle;rounded=0;orthogonalLoop=1;jettySize=auto;html=1;exitX=0.5;exitY=1;exitDx=0;exitDy=0;" edge="1" parent="1" source="1472" target="1472">
          <mxGeometry relative="1" as="geometry" />
        </mxCell>
      </root>
    </mxGraphModel>
  </diagram>
</mxfile>
